<?xml version="1.0" encoding="UTF-8" standalone="no"?>
<svg
   viewBox="0 0 512 512"
   version="1.1"
   id="svg58"
   sodipodi:docname="icon.svg"
   xml:space="preserve"
   inkscape:version="1.3.2 (091e20e, 2023-11-25)"
   width="512"
   height="512"
   xmlns:inkscape="http://www.inkscape.org/namespaces/inkscape"
   xmlns:sodipodi="http://sodipodi.sourceforge.net/DTD/sodipodi-0.dtd"
   xmlns:xlink="http://www.w3.org/1999/xlink"
   xmlns="http://www.w3.org/2000/svg"
   xmlns:svg="http://www.w3.org/2000/svg"><sodipodi:namedview
     id="namedview58"
     pagecolor="#ffffff"
     bordercolor="#cccccc"
     borderopacity="1"
     inkscape:showpageshadow="0"
     inkscape:pageopacity="1"
     inkscape:pagecheckerboard="0"
     inkscape:deskcolor="#d1d1d1"
     inkscape:zoom="0.41308595"
     inkscape:cx="850.91251"
     inkscape:cy="475.68793"
     inkscape:window-width="2152"
     inkscape:window-height="1212"
     inkscape:window-x="316"
     inkscape:window-y="100"
     inkscape:window-maximized="0"
     inkscape:current-layer="layer1"><inkscape:page
       x="0"
       y="0"
       width="512"
       height="512"
       id="page60"
       margin="0"
       bleed="0"
       inkscape:export-filename="icon.png"
       inkscape:export-xdpi="96"
       inkscape:export-ydpi="96" /><inkscape:page
       x="769.81555"
       y="-58.099289"
       width="512"
       height="512"
       id="page3"
       margin="0"
       bleed="0" /><inkscape:page
       x="1471.8488"
       y="-58.099289"
       width="512"
       height="512"
       id="page4"
       margin="0"
       bleed="0" /></sodipodi:namedview><!-- Define color palette --><defs
     id="defs1"><linearGradient
       id="linearGradient5"
       inkscape:collect="always"><stop
         style="stop-color:#ec19dc;stop-opacity:1;"
         offset="0"
         id="stop4" /><stop
         style="stop-color:#de12ce;stop-opacity:1;"
         offset="1"
         id="stop5" /></linearGradient><style
       id="style1">
      .p1 { fill: #6644FF }
      .p2 { fill: #5533EE }
      .p3 { fill: #4422DD }
    </style><linearGradient
       inkscape:collect="always"
       xlink:href="#linearGradient5"
       id="linearGradient2"
       x1="-1393.7708"
       y1="263.07709"
       x2="-1158.2292"
       y2="263.07709"
       gradientUnits="userSpaceOnUse"
       gradientTransform="translate(1.0660991,-7.0770798)" /></defs><!-- Main body - scaled up and centered --><!-- Upper body --><!-- Neck --><!-- Head --><!-- Antlers/ears --><!-- Front legs --><!-- Back legs --><!-- Tail --><g
     inkscape:groupmode="layer"
     id="layer1"
     inkscape:label="raw"
     style="display:inline"><g
       inkscape:groupmode="layer"
       id="layer2"
       inkscape:label="group-R5-3"
       transform="translate(1532)" /><path
       id="path5-9"
       d="m -1331.3039,210.48576 -19.9161,5.92146 c 0,0 -3.2312,25.83757 -6.9985,32.83372 -3.7673,6.99851 -3.2287,0 -3.2287,0 0,0 -2.6855,4.7991 -5.8476,5.14939 -3.1621,0.35267 -4.3918,-2.63308 -4.3918,-2.63308 0,0 5.9717,-12.61259 6.6745,-19.30371 0.703,-6.69113 -1.5798,1.73949 -2.2827,1.21288 -0.703,-0.529 -1.9325,-16.16068 -1.9325,-16.16068 0,0 -6.1479,0.17639 -7.5513,0.70294 -1.4061,0.52661 -3.1622,2.63545 -3.1622,2.63545 l -3.5124,-2.63545 -1.5822,-2.10886 -3.5123,-1.22718 c 0,0 -2.6355,-0.52899 -3.6887,-1.93252 -1.0534,-1.4059 0,-11.06608 0,-11.06608 0,0 0,-3.16208 1.756,-5.79756 1.7564,-2.63308 18.7938,-21.07658 18.7938,-21.07658 l 12.1195,-11.06608 c 0,0 -0.7031,-3.68872 0.8792,-4.74196 1.5799,-1.05322 1.9325,-7.55134 2.8094,-8.60697 0.8794,-1.05323 2.1089,-9.30753 3.1621,-10.53709 1.0532,-1.22957 -1.7562,-4.04136 0.177,-5.79755 1.9301,-1.75617 4.7418,-8.07797 6.3216,-9.48386 1.5822,-1.4059 -2.9857,-4.04137 -0.3502,-5.97149 2.6331,-1.93252 5.9714,-1.93252 6.8507,-4.74431 0.8769,-2.80942 -2.285,-4.21533 -0.177,-6.49812 2.1064,-2.28281 4.5656,-0.1764 5.6212,-2.28281 1.0531,-2.10885 -1.7585,-5.44487 -0.3526,-7.02711 1.4057,-1.57984 5.6212,0 6.8508,-2.10646 1.2295,-2.10885 -2.4591,-4.39164 0,-5.9715 2.4591,-1.58224 5.6211,0.52661 7.2009,-1.22956 1.58,-1.7562 2.4591,-5.62123 4.2154,-6.50052 1.7562,-0.87689 3.3384,1.05563 4.9183,0 1.5798,-1.05322 1.2295,-4.2153 3.5124,-5.79514 2.2828,-1.57986 6.5076,2.10885 8.1734,0 1.663,-2.10886 2.3661,-5.4449 4.6488,-6.32418 2.2828,-0.87691 3.5124,2.28519 5.445,1.22956 1.9325,-1.05322 7.5536,-5.26855 8.4304,-5.26855 0.8794,0 0.5269,2.98576 2.6358,2.63548 2.1062,-0.35268 4.5653,-4.91828 7.7276,-5.44489 3.1619,-0.52662 3.5123,4.38926 5.2708,3.1597 1.7562,-1.22719 2.633,-4.5656 5.445,-4.38927 2.8094,0.17395 6.4981,4.38927 8.0779,4.21532 1.5822,-0.17634 8.0804,-3.33842 10.0128,-3.33842 1.9326,0 7.3774,6.5005 9.4839,6.32416 2.1089,-0.17639 2.1089,-3.51236 5.445,-2.81179 3.3384,0.70295 3.8649,6.14783 5.2708,6.67445 1.4035,0.529 5.7952,-0.8769 7.5514,0 1.7561,0.87929 4.9182,1.93251 5.9715,3.16208 1.0555,1.22957 -2.6332,3.51475 0,4.21532 2.6353,0.70295 8.4307,6.67444 10.3631,5.79755 1.9326,-0.87928 5.271,-0.87928 5.271,-0.87928 0,0 3.5124,12.11933 5.9715,12.11933 2.4591,0 8.2543,8.60696 9.3075,9.83653 1.0556,1.22956 5.2709,8.25668 5.9739,10.88976 0.7005,2.63547 6.3218,11.59272 6.3218,15.28142 0,3.6887 3.865,17.91687 1.5822,23.18542 -2.2851,5.26855 -5.6213,17.38787 -11.0661,21.2529 -5.4448,3.86506 -14.755,12.29567 -19.8494,12.99862 -5.0923,0.70057 -18.6175,0.52663 -19.4943,-2.45914 -0.8792,-2.98573 19.6705,0.52663 24.2386,-12.82227 4.5656,-13.3489 11.7666,-20.02335 8.7809,-33.37224 -2.9857,-13.3489 -30.3865,-61.65228 -81.6732,-55.32811 -51.2891,6.32178 -62.882,49.7069 -62.882,49.7069 l 5.0948,10.1868 8.4305,0.35267 c 0,0 8.781,-10.36315 11.2401,-11.24243 2.4592,-0.87927 5.0946,7.37741 4.0414,10.18683 -1.0557,2.81179 -6.1478,6.32414 -6.1478,6.32414 0,0 19.8469,8.95726 23.1853,20.19969 3.3361,11.24004 24.5891,36.88462 29.6837,38.81712 5.0921,1.93252 20.7262,15.63171 28.1036,14.2258 7.375,-1.4035 22.3061,-2.63307 33.3722,16.16072 11.0638,18.79378 14.4022,28.98058 13.523,45.13889 -0.8769,16.1607 4.9182,41.10232 3.162,48.30338 -1.7562,7.20106 -4.0389,10.36313 -1.4059,15.63169 2.6355,5.27093 4.568,20.02335 2.9881,24.59086 -1.5822,4.56558 -2.8118,11.76737 -1.5822,15.45608 1.2296,3.68798 5.4448,1.22884 4.2153,6.14711 -1.2296,4.9185 -2.4591,7.55443 -0.8769,13.70155 1.5799,6.14809 7.5515,18.79403 10.3631,23.35988 2.8094,4.56822 -1.5821,5.971 -1.5821,5.971 0,0 -15.6318,-1.22957 -15.6318,-1.75545 0,-0.52685 5.9715,-11.24053 5.9715,-11.24053 -2.1064,-7.55351 -10.0104,-15.9839 -11.2399,-20.19945 -1.2296,-4.21579 -0.177,-14.2284 -0.3528,-16.51098 -0.1733,-2.28326 -5.6212,-15.10507 -8.0779,-21.07633 -2.4591,-5.97197 -9.4862,-26.69804 -9.4862,-26.69804 0,0 -16.8614,13.17256 -21.4293,14.2258 -4.5657,1.05561 -8.6047,1.75595 -8.6047,1.75595 0,0 -3.162,17.56707 -1.7586,21.25505 1.406,3.68679 4.0415,12.47009 5.0947,13.1728 1.0531,0.70272 0.3526,17.21179 0.3526,21.6032 0,4.39164 -1.5822,12.82203 0.3503,15.63408 1.9326,2.81012 2.8094,8.60433 1.0534,9.8339 -1.7563,1.22957 0.3525,6.50075 -1.7563,6.50075 -2.1065,0 -17.0375,1.57962 -16.1583,0 0.8768,-1.58223 7.5513,-7.73032 7.5513,-11.59224 0,-3.86576 -2.8094,-20.19968 -2.8094,-20.19968 0,0 -4.9182,-5.09508 -3.162,-8.25429 1.7561,-3.16211 2.1089,-8.78331 0.5265,-13.17471 -1.5799,-4.39262 -9.3075,-17.03761 -9.3075,-17.03761 0,0 -1.5822,16.51074 -3.162,17.38932 -1.5822,0.8769 -1.2296,14.40259 -1.2296,14.40259 l 0.8769,30.56309 c 0,0 2.4592,7.20082 2.9857,7.72767 0.529,0.52591 -5.0922,3.5119 -8.6045,2.98505 -3.5148,-0.52592 -12.1194,-1.05277 -11.2424,-2.28233 0.8792,-1.22957 4.7418,-6.50075 5.0945,-7.55349 0.3504,-1.05371 -1.4058,-11.24053 -0.3527,-15.28214 1.0556,-4.03875 2.8119,-11.76643 3.1621,-17.38741 0.3504,-5.62121 1.0533,-14.75527 -1.0532,-17.38764 -2.1089,-2.63616 -5.7977,-15.10818 -2.8119,-19.49695 2.986,-4.39141 3.8651,-13.87553 3.8651,-13.87553 0,0 -15.6317,-11.76905 -15.4578,-11.24243 0.1769,0.52663 0,16.51074 -0.1734,20.37362 -0.1769,3.8648 -2.8116,11.59249 -1.4058,14.22844 1.4058,2.63523 4.8634,8.25357 3.1335,13.34888 -1.7277,5.09436 -6.8223,9.83582 -5.7689,16.33488 1.0555,6.49981 5.3901,22.30783 5.7689,24.5911 0.379,2.28233 0,13.69871 0,13.69871 0,0 -19.9948,0.3529 -19.6445,-1.22956 0.3527,-1.57962 8.9597,-9.65996 9.6601,-11.59249 0.7031,-1.93228 -2.9857,-24.94185 -3.5122,-28.98082 -0.5267,-4.03876 -3.8627,-15.631 -3.1621,-18.44303 0.7029,-2.81012 0.8792,-5.44537 -0.7006,-11.76737 -1.5822,-6.32394 -13.878,-33.72444 -13.1749,-39.16932 0.703,-5.44487 3.162,-10.71342 2.2829,-12.29566 -0.8771,-1.57987 -2.986,-5.61885 -5.445,-10.01048 -2.4591,-4.39165 -8.078,-30.21017 -7.7277,-35.48109 0.3525,-5.26856 1.7562,-11.24005 -0.3503,-23.88601 -2.1088,-12.64832 -5.6211,-28.45635 -7.5539,-32.84562 -1.9322,-4.39165 -7.0413,-11.58795 -7.0413,-11.58795"
       style="display:inline;fill:url(#linearGradient2);fill-opacity:1;fill-rule:nonzero;stroke:none;stroke-width:0.238287"
       inkscape:label="path5-9"
       transform="translate(1532)" /><path
       id="path5-9-5"
       d="m 1671.4788,152.38647 -19.9161,5.92146 c 0,0 -3.2312,25.83757 -6.9985,32.83372 -3.7673,6.99851 -3.2287,0 -3.2287,0 0,0 -2.6855,4.7991 -5.8476,5.14939 -3.1621,0.35267 -4.3918,-2.63308 -4.3918,-2.63308 0,0 5.9717,-12.61259 6.6745,-19.30371 0.703,-6.69113 -1.5798,1.73949 -2.2827,1.21288 -0.703,-0.529 -1.9325,-16.16068 -1.9325,-16.16068 0,0 -6.1479,0.17639 -7.5513,0.70294 -1.4061,0.52661 -3.1622,2.63545 -3.1622,2.63545 l -3.5124,-2.63545 -1.5822,-2.10886 -3.5123,-1.22718 c 0,0 -2.6355,-0.52899 -3.6887,-1.93252 -1.0534,-1.4059 0,-11.06608 0,-11.06608 0,0 0,-3.16208 1.756,-5.79756 1.7564,-2.63308 18.7938,-21.07658 18.7938,-21.07658 l 12.1195,-11.06608 c 0,0 -0.7031,-3.68872 0.8792,-4.74196 1.5799,-1.05322 1.9325,-7.551338 2.8094,-8.606968 0.8794,-1.05323 2.1089,-9.30753 3.1621,-10.53709 1.0532,-1.22957 -1.7562,-4.04136 0.177,-5.79755 1.9301,-1.75617 4.7418,-8.07797 6.3216,-9.48386 1.5822,-1.4059 -2.9857,-4.041374 -0.3502,-5.971494 2.6331,-1.93252 5.9714,-1.93252 6.8507,-4.74431 0.8769,-2.80942 -2.285,-4.21533 -0.177,-6.49812 2.1064,-2.28281 4.5656,-0.1764 5.6212,-2.28281 1.0531,-2.10885 -1.7585,-5.44487 -0.3526,-7.02711 1.4057,-1.57984 5.6212,0 6.8508,-2.10646 1.2295,-2.10885 -2.4591,-4.39164 0,-5.9715 2.4591,-1.58224 5.6211,0.52661 7.2009,-1.22956 1.58,-1.7562 2.4591,-5.62123 4.2154,-6.50052 1.7562,-0.87689 3.3384,1.05563 4.9183,0 1.5798,-1.05322 1.2295,-4.2153 3.5124,-5.79514 2.2828,-1.57986 6.5076,2.10885 8.1734,0 1.663,-2.10886 2.3661,-5.4449 4.6488,-6.32418 2.2828,-0.87691 3.5124,2.28519 5.445,1.22956 1.9325,-1.05322 7.5536,-5.2685497 8.4304,-5.2685497 0.8794,0 0.5269,2.9857597 2.6358,2.6354797 2.1062,-0.35268 4.5653,-4.9182797 7.7276,-5.4448897 3.1619,-0.52662 3.5123,4.38926 5.2708,3.1597 1.7562,-1.22719 2.633,-4.5656 5.445,-4.38927 2.8094,0.17395 6.4981,4.38927 8.0779,4.21532 1.5822,-0.17634 8.0804,-3.33842 10.0128,-3.33842 1.9326,0 7.3774,6.5004997 9.4839,6.3241597 2.1089,-0.17639 2.1089,-3.5123597 5.445,-2.8117897 3.3384,0.70295 3.8649,6.1478297 5.2708,6.6744497 1.4035,0.529 5.7952,-0.8769 7.5514,0 1.7561,0.87929 4.9182,1.93251 5.9715,3.16208 1.0555,1.22957 -2.6332,3.51475 0,4.21532 2.6353,0.70295 8.4307,6.67444 10.3631,5.79755 1.9326,-0.87928 5.271,-0.87928 5.271,-0.87928 0,0 3.5124,12.11933 5.9715,12.11933 2.4591,0 8.2543,8.60696 9.3075,9.83653 1.0556,1.22956 5.2709,8.25668 5.9739,10.88976 0.7005,2.63547 6.3218,11.592724 6.3218,15.281424 0,3.6887 3.865,17.91687 1.5822,23.18542 -2.2851,5.268548 -5.6213,17.387868 -11.0661,21.252898 -5.4448,3.86506 -14.755,12.29567 -19.8494,12.99862 -5.0923,0.70057 -18.6175,0.52663 -19.4943,-2.45914 -0.8792,-2.98573 19.6705,0.52663 24.2386,-12.82227 4.5656,-13.3489 11.7666,-20.023348 8.7809,-33.372238 -2.9857,-13.3489 -30.3865,-61.652284 -81.6732,-55.328114 -51.2891,6.32178 -62.882,49.706904 -62.882,49.706904 l 5.0948,10.1868 8.4305,0.35267 c 0,0 8.781,-10.36315 11.2401,-11.24243 2.4592,-0.87927 5.0946,7.37741 4.0414,10.18683 -1.0557,2.81179 -6.1478,6.32414 -6.1478,6.32414 0,0 19.8469,8.957258 23.1853,20.199688 3.3361,11.24004 24.5891,36.88462 29.6837,38.81712 5.0921,1.93252 20.7262,15.63171 28.1036,14.2258 7.375,-1.4035 22.3061,-2.63307 33.3722,16.16072 11.0638,18.79378 14.4022,28.98058 13.523,45.13889 -0.8769,16.1607 4.9182,41.10232 3.162,48.30338 -1.7562,7.20106 -4.0389,10.36313 -1.4059,15.63169 2.6355,5.27093 4.568,20.02335 2.9881,24.59086 -1.5822,4.56558 -2.8118,11.76737 -1.5822,15.45608 1.2296,3.68798 5.4448,1.22884 4.2153,6.14711 -1.2296,4.9185 -2.4591,7.55443 -0.8769,13.70155 1.5799,6.14809 7.5515,18.79403 10.3631,23.35988 2.8094,4.56822 -1.5821,5.971 -1.5821,5.971 0,0 -15.6318,-1.22957 -15.6318,-1.75545 0,-0.52685 5.9715,-11.24053 5.9715,-11.24053 -2.1064,-7.55351 -10.0104,-15.9839 -11.2399,-20.19945 -1.2296,-4.21579 -0.177,-14.2284 -0.3528,-16.51098 -0.1733,-2.28326 -5.6212,-15.10507 -8.0779,-21.07633 -2.4591,-5.97197 -9.4862,-26.69804 -9.4862,-26.69804 0,0 -16.8614,13.17256 -21.4293,14.2258 -4.5657,1.05561 -8.6047,1.75595 -8.6047,1.75595 0,0 -3.162,17.56707 -1.7586,21.25505 1.406,3.68679 4.0415,12.47009 5.0947,13.1728 1.0531,0.70272 0.3526,17.21179 0.3526,21.6032 0,4.39164 -1.5822,12.82203 0.3503,15.63408 1.9326,2.81012 2.8094,8.60433 1.0534,9.8339 -1.7563,1.22957 0.3525,6.50075 -1.7563,6.50075 -2.1065,0 -17.0375,1.57962 -16.1583,0 0.8768,-1.58223 7.5513,-7.73032 7.5513,-11.59224 0,-3.86576 -2.8094,-20.19968 -2.8094,-20.19968 0,0 -4.9182,-5.09508 -3.162,-8.25429 1.7561,-3.16211 2.1089,-8.78331 0.5265,-13.17471 -1.5799,-4.39262 -9.3075,-17.03761 -9.3075,-17.03761 0,0 -1.5822,16.51074 -3.162,17.38932 -1.5822,0.8769 -1.2296,14.40259 -1.2296,14.40259 l 0.8769,30.56309 c 0,0 2.4592,7.20082 2.9857,7.72767 0.529,0.52591 -5.0922,3.5119 -8.6045,2.98505 -3.5148,-0.52592 -12.1194,-1.05277 -11.2424,-2.28233 0.8792,-1.22957 4.7418,-6.50075 5.0945,-7.55349 0.3504,-1.05371 -1.4058,-11.24053 -0.3527,-15.28214 1.0556,-4.03875 2.8119,-11.76643 3.1621,-17.38741 0.3504,-5.62121 1.0533,-14.75527 -1.0532,-17.38764 -2.1089,-2.63616 -5.7977,-15.10818 -2.8119,-19.49695 2.986,-4.39141 3.8651,-13.87553 3.8651,-13.87553 0,0 -15.6317,-11.76905 -15.4578,-11.24243 0.1769,0.52663 0,16.51074 -0.1734,20.37362 -0.1769,3.8648 -2.8116,11.59249 -1.4058,14.22844 1.4058,2.63523 4.8634,8.25357 3.1335,13.34888 -1.7277,5.09436 -6.8223,9.83582 -5.7689,16.33488 1.0555,6.49981 5.3901,22.30783 5.7689,24.5911 0.379,2.28233 0,13.69871 0,13.69871 0,0 -19.9948,0.3529 -19.6445,-1.22956 0.3527,-1.57962 8.9597,-9.65996 9.6601,-11.59249 0.7031,-1.93228 -2.9857,-24.94185 -3.5122,-28.98082 -0.5267,-4.03876 -3.8627,-15.631 -3.1621,-18.44303 0.7029,-2.81012 0.8792,-5.44537 -0.7006,-11.76737 -1.5822,-6.32394 -13.878,-33.72444 -13.1749,-39.16932 0.703,-5.44487 3.162,-10.71342 2.2829,-12.29566 -0.8771,-1.57987 -2.986,-5.61885 -5.445,-10.01048 -2.4591,-4.39165 -8.078,-30.21017 -7.7277,-35.48109 0.3525,-5.26856 1.7562,-11.24005 -0.3503,-23.88601 -2.1088,-12.64832 -5.6211,-28.45635 -7.5539,-32.84562 -1.9322,-4.39165 -7.0413,-11.58795 -7.0413,-11.58795"
       style="display:inline;fill:#0c0c0c;fill-opacity:1;fill-rule:nonzero;stroke:none;stroke-width:0.238287"
       inkscape:label="path5-9" /></g><g
     inkscape:groupmode="layer"
     id="layer3"
     inkscape:label="icon filled"><rect
       style="fill:#ec19dc;fill-opacity:1"
       id="rect4"
       width="512"
       height="512"
       x="769.81555"
       y="-58.099289"
       inkscape:label="rect4" /><path
       id="path5-9-4"
       d="m 969.44555,152.38647 -19.9161,5.92146 c 0,0 -3.2312,25.83757 -6.9985,32.83372 -3.7673,6.99851 -3.2287,0 -3.2287,0 0,0 -2.6855,4.7991 -5.8476,5.14939 -3.1621,0.35267 -4.3918,-2.63308 -4.3918,-2.63308 0,0 5.9717,-12.61259 6.6745,-19.30371 0.703,-6.69113 -1.5798,1.73949 -2.2827,1.21288 -0.703,-0.529 -1.9325,-16.16068 -1.9325,-16.16068 0,0 -6.1479,0.17639 -7.5513,0.70294 -1.4061,0.52661 -3.1622,2.63545 -3.1622,2.63545 l -3.5124,-2.63545 -1.5822,-2.10886 -3.5123,-1.22718 c 0,0 -2.6355,-0.52899 -3.6887,-1.93252 -1.0534,-1.4059 0,-11.06608 0,-11.06608 0,0 0,-3.16208 1.756,-5.79756 1.7564,-2.63308 18.7938,-21.07658 18.7938,-21.07658 l 12.1195,-11.06608 c 0,0 -0.7031,-3.68872 0.8792,-4.74196 1.5799,-1.05322 1.9325,-7.551339 2.8094,-8.606969 0.8794,-1.05323 2.1089,-9.30753 3.1621,-10.53709 1.0532,-1.22957 -1.7562,-4.04136 0.177,-5.79755 1.9301,-1.75617 4.7418,-8.07797 6.3216,-9.48386 1.5822,-1.4059 -2.9857,-4.04137 -0.3502,-5.97149 2.6331,-1.93252 5.9714,-1.93252 6.8507,-4.74431 0.8769,-2.80942 -2.285,-4.21533 -0.177,-6.49812 2.1064,-2.28281 4.5656,-0.1764 5.6212,-2.28281 1.0531,-2.10885 -1.7585,-5.44487 -0.3526,-7.02711 1.4057,-1.57984 5.6212,0 6.8508,-2.10646 1.2295,-2.10885 -2.4591,-4.39164 0,-5.9715 2.4591,-1.58224 5.6211,0.52661 7.2009,-1.22956 1.58,-1.7562 2.4591,-5.62123 4.2154,-6.50052 1.7562,-0.87689 3.3384,1.05563 4.9183,0 1.5798,-1.05322 1.2295,-4.2153 3.5124,-5.79514 2.2828,-1.57986 6.5076,2.10885 8.17345,0 1.663,-2.10886 2.3661,-5.4449 4.6488,-6.32418 2.2828,-0.87691 3.5124,2.28519 5.445,1.22956 1.9325,-1.05322 7.5536,-5.2685499 8.4304,-5.2685499 0.8794,0 0.5269,2.9857599 2.6358,2.6354799 2.1062,-0.35268 4.5653,-4.9182799 7.7276,-5.4448899 3.1619,-0.52662 3.5123,4.38926 5.2708,3.1597 1.7562,-1.22719 2.633,-4.5656 5.445,-4.38927 2.8094,0.17395 6.4981,4.38927 8.0779,4.21532 1.5822,-0.17634 8.0804,-3.33842 10.0128,-3.33842 1.9326,0 7.3774,6.5004999 9.4839,6.3241599 2.1089,-0.17639 2.1089,-3.5123599 5.445,-2.8117899 3.3384,0.70295 3.8649,6.1478299 5.2708,6.6744499 1.4035,0.529 5.7952,-0.8769 7.5514,0 1.7561,0.87929 4.9182,1.93251 5.9715,3.16208 1.0555,1.22957 -2.6332,3.51475 0,4.21532 2.6353,0.70295 8.4307,6.67444 10.3631,5.79755 1.9326,-0.87928 5.271,-0.87928 5.271,-0.87928 0,0 3.5124,12.11933 5.9715,12.11933 2.4591,0 8.2543,8.60696 9.3075,9.83653 1.0556,1.22956 5.2709,8.25668 5.9739,10.88976 0.7005,2.63547 6.3218,11.59272 6.3218,15.28142 0,3.6887 3.865,17.91687 1.5822,23.18542 -2.2851,5.268549 -5.6213,17.387869 -11.0661,21.252899 -5.4448,3.86506 -14.755,12.29567 -19.8494,12.99862 -5.0923,0.70057 -18.6175,0.52663 -19.4943,-2.45914 -0.8792,-2.98573 19.6705,0.52663 24.2386,-12.82227 4.5656,-13.3489 11.7666,-20.023349 8.7809,-33.372239 -2.9857,-13.3489 -30.3865,-61.65228 -81.6732,-55.32811 -51.28915,6.32178 -62.88205,49.7069 -62.88205,49.7069 l 5.0948,10.1868 8.4305,0.35267 c 0,0 8.781,-10.36315 11.24015,-11.24243 2.4592,-0.87927 5.0946,7.37741 4.0414,10.18683 -1.0557,2.81179 -6.14785,6.32414 -6.14785,6.32414 0,0 19.84695,8.957259 23.18535,20.199689 3.3361,11.24004 24.5891,36.88462 29.6837,38.81712 5.0921,1.93252 20.7262,15.63171 28.1036,14.2258 7.375,-1.4035 22.3061,-2.63307 33.3722,16.16072 11.0638,18.79378 14.4022,28.98058 13.523,45.13889 -0.8769,16.1607 4.9182,41.10232 3.162,48.30338 -1.7562,7.20106 -4.0389,10.36313 -1.4059,15.63169 2.6355,5.27093 4.568,20.02335 2.9881,24.59086 -1.5822,4.56558 -2.8118,11.76737 -1.5822,15.45608 1.2296,3.68798 5.4448,1.22884 4.2153,6.14711 -1.2296,4.9185 -2.4591,7.55443 -0.8769,13.70155 1.5799,6.14809 7.5515,18.79403 10.3631,23.35988 2.8094,4.56822 -1.5821,5.971 -1.5821,5.971 0,0 -15.6318,-1.22957 -15.6318,-1.75545 0,-0.52685 5.9715,-11.24053 5.9715,-11.24053 -2.1064,-7.55351 -10.0104,-15.9839 -11.2399,-20.19945 -1.2296,-4.21579 -0.177,-14.2284 -0.3528,-16.51098 -0.1733,-2.28326 -5.6212,-15.10507 -8.0779,-21.07633 -2.4591,-5.97197 -9.4862,-26.69804 -9.4862,-26.69804 0,0 -16.8614,13.17256 -21.4293,14.2258 -4.5657,1.05561 -8.6047,1.75595 -8.6047,1.75595 0,0 -3.162,17.56707 -1.7586,21.25505 1.406,3.68679 4.0415,12.47009 5.0947,13.1728 1.0531,0.70272 0.3526,17.21179 0.3526,21.6032 0,4.39164 -1.5822,12.82203 0.3503,15.63408 1.9326,2.81012 2.8094,8.60433 1.0534,9.8339 -1.7563,1.22957 0.3525,6.50075 -1.7563,6.50075 -2.1065,0 -17.0375,1.57962 -16.1583,0 0.8768,-1.58223 7.5513,-7.73032 7.5513,-11.59224 0,-3.86576 -2.8094,-20.19968 -2.8094,-20.19968 0,0 -4.9182,-5.09508 -3.162,-8.25429 1.7561,-3.16211 2.1089,-8.78331 0.5265,-13.17471 -1.5799,-4.39262 -9.3075,-17.03761 -9.3075,-17.03761 0,0 -1.5822,16.51074 -3.162,17.38932 -1.5822,0.8769 -1.2296,14.40259 -1.2296,14.40259 l 0.8769,30.56309 c 0,0 2.4592,7.20082 2.9857,7.72767 0.529,0.52591 -5.0922,3.5119 -8.6045,2.98505 -3.5148,-0.52592 -12.1194,-1.05277 -11.2424,-2.28233 0.8792,-1.22957 4.7418,-6.50075 5.0945,-7.55349 0.3504,-1.05371 -1.4058,-11.24053 -0.3527,-15.28214 1.0556,-4.03875 2.8119,-11.76643 3.1621,-17.38741 0.3504,-5.62121 1.0533,-14.75527 -1.0532,-17.38764 -2.1089,-2.63616 -5.7977,-15.10818 -2.8119,-19.49695 2.986,-4.39141 3.8651,-13.87553 3.8651,-13.87553 0,0 -15.6317,-11.76905 -15.4578,-11.24243 0.1769,0.52663 0,16.51074 -0.1734,20.37362 -0.1769,3.8648 -2.8116,11.59249 -1.4058,14.22844 1.4058,2.63523 4.8634,8.25357 3.1335,13.34888 -1.7277,5.09436 -6.8223,9.83582 -5.7689,16.33488 1.0555,6.49981 5.3901,22.30783 5.7689,24.5911 0.379,2.28233 0,13.69871 0,13.69871 0,0 -19.9948,0.3529 -19.6445,-1.22956 0.3527,-1.57962 8.9597,-9.65996 9.6601,-11.59249 0.7031,-1.93228 -2.9857,-24.94185 -3.5122,-28.98082 -0.5267,-4.03876 -3.8627,-15.631 -3.1621,-18.44303 0.7029,-2.81012 0.8792,-5.44537 -0.7006,-11.76737 -1.5822,-6.32394 -13.87805,-33.72444 -13.17495,-39.16932 0.703,-5.44487 3.162,-10.71342 2.2829,-12.29566 -0.8771,-1.57987 -2.986,-5.61885 -5.445,-10.01048 -2.4591,-4.39165 -8.078,-30.21017 -7.7277,-35.48109 0.3525,-5.26856 1.7562,-11.24005 -0.3503,-23.88601 -2.1088,-12.64832 -5.6211,-28.45635 -7.5539,-32.84562 -1.9322,-4.39165 -7.0413,-11.58795 -7.0413,-11.58795"
       style="display:inline;fill:#ffffff;fill-opacity:1;fill-rule:nonzero;stroke:none;stroke-width:0.238287"
       inkscape:label="path5-9" /></g><g
     inkscape:groupmode="layer"
     id="layer4"
     inkscape:label="icon flat - black" /><g
     id="g1"
     inkscape:groupmode="layer"
     inkscape:label="1"
     transform="translate(522)"
     style="display:inline" /></svg>
